<svg width="99" height="57" viewBox="0 0 99 57" fill="none" xmlns="http://www.w3.org/2000/svg">
<path d="M1.57195 21.1712C9.24536 24.7916 17.0711 28.1462 24.7444 31.7665C26.1879 32.4525 27.8247 30.7063 26.8001 29.4124C25.0549 26.7875 23.2715 24.3527 21.5263 21.7279C24.6422 22.4539 26.6163 24.4331 28.7796 26.9442C29.7666 27.9337 31.0579 28.8857 32.5406 28.3934C34.8601 27.6741 35.7385 24.2923 36.5392 22.2788C38.5601 17.1501 39.935 11.7922 42.6018 6.89234C45.8015 1.30893 48.1919 4.65675 49.6688 9.1057C51.2974 13.7829 52.1271 18.9912 52.425 23.8948C52.8705 32.4855 52.8968 41.684 56.6501 49.5565C58.7352 53.9302 64.8109 58.613 69.6807 55.046C75.6914 50.7205 79.7322 41.4511 80.6914 34.2305C81.4563 30.4305 83.0849 4.6621 90.8656 13.642C96.5588 20.2248 96.467 32.9578 96.8747 41.2444C96.9494 42.3468 98.6217 42.3869 98.7371 41.3228C99.5458 32.886 98.4551 23.5723 95.4243 15.5485C93.7192 11.2513 87.8354 5.12444 83.3439 10.2501C78.0912 16.2111 78.6488 26.2083 77.7272 33.733C77.2652 38.4836 74.7884 43.4218 72.5788 47.524C67.8547 56.2603 60.7513 52.7546 58.1764 44.9214C55.0714 35.3013 56.4912 24.8125 54.7169 14.9656C54.037 11.4679 52.0755 -0.393316 46.107 0.283231C39.2263 1.07286 36.704 12.1307 34.9489 17.4116C35.1012 17.1457 32.3154 26.0745 31.29 25.2748C30.2648 24.4754 29.4302 23.2202 28.443 22.2308C26.5451 20.3659 24.4936 19.261 22.0996 18.8781C24.3439 17.5506 26.4363 15.9948 28.377 14.2108C29.3665 13.2237 28.3425 11.436 27.0501 11.4724C18.117 12.1455 10.2061 16.0886 1.65122 18.3205C0.320789 18.5468 0.204206 20.5991 1.57195 21.1712ZM17.7668 18.7966C17.0821 19.2518 17.2332 19.9742 17.6509 20.3548C17.4603 20.8107 17.4596 21.3048 17.7631 21.7613C18.7495 23.2449 19.8118 24.8426 20.7982 26.3262C16.0877 24.1918 11.4529 22.1714 6.74241 20.037C11.9137 18.409 16.9715 16.3628 22.2181 15.3434C20.8105 16.4438 19.2887 17.6202 17.7668 18.7966Z" fill="#181818"/>
</svg>
